PathFileType	4	(X/Y/Z)	D:\TRACE\v60_Jaco2_6-2-23\JustBodyDRS_Motion2_6-platform.trc
DataRate	CameraRate	NumFrames	NumMarkers	Units	OrigDataRate	OrigDataStartFrame	OrigNumFrames
100.00	100.00	      71	5	mm	100.00	2528	      6741
Frame#	Time	Left_Front			Right_Front			Left_Aft			Right_Aft			Post			
		X1	Y1	Z1	X2	Y2	Z2	X3	Y3	Z3	X4	Y4	Z4	X5	Y5	Z5	

2528	25.270	-842.31293	-10.52977	-643.04309	727.75006	-9.22997	-648.12524	-750.71198	21.50822	491.76566	692.12939	20.89505	500.98892	-56.34636	1278.76563	-1004.28241	
2529	25.280	-843.14844	-11.86964	-643.15063	727.12006	-10.65323	-648.40979	-751.45380	22.28831	491.59586	691.14197	21.55208	500.65771	-56.66159	1276.70374	-1007.49921	
2530	25.290	-843.93817	-13.24968	-643.18512	726.38025	-11.65563	-648.56036	-751.92853	22.96352	491.24603	690.24994	22.26225	500.24017	-57.67437	1274.79492	-1010.83270	
2531	25.300	-844.67059	-14.73039	-643.87244	725.66711	-13.21263	-648.92651	-752.72675	23.77329	490.98367	689.49341	23.04408	500.36066	-58.15546	1272.83594	-1013.74982	
2532	25.310	-845.28998	-15.81839	-644.07141	724.98431	-14.19511	-649.10956	-753.37183	24.38573	490.72989	689.13812	24.04169	499.98981	-58.82182	1270.74402	-1016.61603	
2533	25.320	-845.80157	-16.99790	-644.29993	724.18884	-15.70398	-649.37347	-754.10052	25.16024	490.35910	688.62506	25.08865	499.91324	-59.67400	1269.21790	-1019.66138	
2534	25.330	-846.36163	-18.15420	-644.40265	723.90674	-16.47027	-649.31525	-754.43475	26.21109	490.19028	688.12335	26.13006	499.56439	-60.39427	1267.16614	-1022.35577	
2535	25.340	-846.83008	-19.27736	-644.64764	723.05249	-17.71627	-649.74811	-754.96490	26.95924	489.71964	687.54883	26.97104	499.21997	-61.25917	1265.40747	-1024.71106	
2536	25.350	-847.66833	-20.64421	-644.90454	722.54504	-19.11687	-650.00720	-755.62262	27.85198	489.36456	686.77283	27.74964	498.78290	-61.48900	1263.29028	-1027.03052	
2537	25.360	-848.33618	-22.30772	-645.14368	721.94702	-20.47245	-650.42755	-756.33527	28.64245	488.93106	686.12360	28.49220	498.34018	-62.06720	1261.43323	-1029.16101	
2538	25.370	-848.81000	-23.04554	-645.40723	721.54132	-21.75479	-650.80670	-756.90582	29.32348	488.68527	685.72455	29.38717	498.15494	-62.32806	1259.09521	-1031.21399	
2539	25.380	-849.12054	-24.66585	-645.52533	721.01245	-22.96920	-650.84503	-757.15594	30.16888	488.27850	685.37860	30.52379	497.84937	-62.90351	1257.38220	-1033.29504	
2540	25.390	-849.57898	-25.74449	-645.89532	720.61536	-24.12438	-651.14124	-757.41278	31.14039	488.05624	685.05804	31.25945	497.49661	-63.38091	1255.54980	-1034.81299	
2541	25.400	-850.09912	-26.86806	-646.05585	720.18481	-25.16371	-651.46857	-757.73724	32.03954	487.61246	684.40674	32.06208	496.81946	-63.93779	1253.87231	-1036.95496	
2542	25.410	-850.41858	-28.01799	-646.33087	720.03735	-26.38713	-651.40808	-758.21387	32.73468	487.45657	684.18549	33.04370	496.50116	-64.17070	1252.00073	-1039.31641	
2543	25.420	-850.68683	-29.38780	-646.38184	719.82385	-27.58186	-651.57550	-758.55322	33.36368	487.07922	683.73419	33.61288	496.12106	-64.35940	1250.19543	-1041.65649	
2544	25.430	-850.72388	-30.48001	-646.70917	719.29645	-28.74118	-651.97424	-758.84113	34.00978	486.70801	683.51324	34.38072	495.82990	-64.87683	1248.31848	-1044.15564	
2545	25.440	-851.11639	-31.37966	-646.73718	719.22211	-29.74906	-652.14667	-758.81586	34.66391	486.56671	682.91235	34.83579	495.45895	-64.86304	1246.60657	-1046.74011	
2546	25.450	-851.10742	-32.38622	-647.07257	719.26532	-30.84303	-652.22784	-759.02148	35.73624	486.12021	682.95697	35.72021	495.29071	-65.50459	1245.15808	-1049.63660	
2547	25.460	-851.43652	-33.62582	-646.97827	719.00726	-31.71420	-652.60461	-759.32178	36.75355	485.62595	683.01343	36.45292	495.01361	-65.23376	1243.31226	-1052.24158	
2548	25.470	-851.22845	-34.48045	-647.11664	719.18835	-32.72513	-652.72455	-759.46411	37.33624	485.45233	682.56067	37.17344	494.64914	-65.52802	1241.66919	-1054.81506	
2549	25.480	-851.18781	-35.50507	-647.63043	718.84491	-34.00187	-652.99792	-759.56158	37.92815	485.07349	683.15375	38.00850	494.35361	-65.53632	1239.93469	-1057.02893	
2550	25.490	-851.04718	-36.82594	-647.66345	718.85846	-34.95491	-653.28625	-759.56879	38.69921	484.80380	682.95593	38.60670	494.10596	-65.14799	1238.47424	-1059.29468	
2551	25.500	-851.16156	-37.53515	-647.68195	718.87982	-35.78484	-653.36133	-759.36328	39.37032	484.56390	682.84198	39.08907	493.76550	-65.14767	1236.87878	-1061.61292	
2552	25.510	-850.99768	-38.30583	-648.02295	718.81464	-36.82219	-653.58160	-759.66852	40.25281	483.98990	682.77509	39.88133	493.59003	-65.40731	1235.46802	-1063.88123	
2553	25.520	-850.97339	-39.43450	-648.25537	718.81848	-37.55903	-653.79846	-759.16650	40.22461	484.27609	683.43463	40.88206	493.97324	-65.11800	1233.87830	-1065.85657	
2554	25.530	-850.60626	-40.74791	-648.45471	719.17389	-38.64861	-653.69604	-759.08301	40.76597	483.94934	683.29987	41.23658	493.56467	-65.22323	1232.34973	-1068.06946	
2555	25.540	-850.42651	-41.86340	-648.72150	719.41138	-39.69522	-654.00153	-758.70172	41.36962	483.74844	683.64917	41.98780	493.38626	-64.83727	1231.06616	-1069.72864	
2556	25.550	-850.39044	-42.28457	-648.85425	719.63153	-40.43898	-654.09229	-758.62292	42.14893	483.65732	684.18634	42.53619	492.95782	-64.10860	1229.31860	-1071.40442	
2557	25.560	-850.05078	-42.97290	-648.96820	720.11450	-41.16789	-654.20105	-758.40594	42.96136	483.52765	684.66266	43.31158	492.90359	-64.11136	1228.20752	-1072.91479	
2558	25.570	-849.68652	-43.66533	-649.03357	720.38281	-42.00308	-654.23132	-757.67706	43.10799	483.07062	684.84540	43.88556	492.63126	-63.72298	1226.98987	-1074.33850	
2559	25.580	-849.40594	-44.64939	-648.98053	720.60809	-42.97631	-654.43390	-757.23413	43.50635	482.64093	685.03705	44.33155	492.39832	-63.49364	1225.34302	-1075.97388	
2560	25.590	-848.86517	-45.58209	-649.09589	721.02258	-43.66871	-654.68127	-756.42072	43.21001	482.35275	685.15967	44.69834	492.05850	-63.43620	1224.34839	-1076.98291	
2561	25.600	-848.21838	-46.39758	-649.15009	721.33350	-44.30810	-654.74060	-756.21820	44.04956	482.29565	685.81384	45.27502	491.90948	-63.02266	1223.27930	-1078.37781	
2562	25.610	-848.03210	-46.79043	-649.36121	721.79620	-44.80542	-654.76318	-756.06378	44.70976	482.17416	686.34967	45.92556	491.73846	-62.54548	1222.20947	-1079.37134	
2563	25.620	-847.50354	-46.66337	-649.49011	722.05255	-45.28662	-654.92853	-756.01556	45.25469	481.96069	686.76910	46.23574	491.54813	-62.05337	1220.95313	-1080.45068	
2564	25.630	-847.52802	-47.19788	-649.80182	722.57709	-45.93454	-655.09369	-755.69757	46.07756	481.81464	687.11176	46.58281	491.13721	-61.68544	1219.98608	-1081.81982	
2565	25.640	-847.01245	-48.26644	-650.07782	723.15784	-47.30552	-655.32001	-755.24524	46.54884	481.46832	687.32996	46.94670	490.92215	-61.81838	1219.04541	-1082.52954	
2566	25.650	-846.43829	-49.35298	-650.11078	723.61279	-47.82320	-655.43842	-755.02118	47.08137	481.39096	687.63422	47.47387	490.55597	-61.04887	1217.80396	-1083.36194	
2567	25.660	-845.74982	-50.02282	-650.09955	723.86792	-48.35920	-655.54346	-753.82117	47.00838	480.80698	687.20862	47.24921	490.02728	-60.18859	1216.56982	-1084.51648	
2568	25.670	-845.37592	-50.48425	-650.19733	724.43848	-49.07446	-655.59393	-753.76172	47.84831	480.08884	690.09930	49.33899	491.09656	-59.75316	1215.61414	-1085.90662	
2569	25.680	-844.80365	-51.09006	-650.36401	724.90564	-49.60374	-655.42151	-753.27002	48.18270	480.32031	689.49469	49.02279	489.78384	-59.53808	1214.79565	-1087.48511	
2570	25.690	-844.21234	-51.76210	-650.21747	725.49359	-50.16059	-655.57306	-752.49371	48.40884	480.26886	689.97357	49.38110	490.01868	-59.21267	1213.69824	-1088.76587	
2571	25.700	-844.09003	-51.90133	-650.49884	726.17755	-50.50353	-655.82654	-751.25995	47.67199	480.66556	690.46393	49.66236	489.83142	-58.24639	1212.87402	-1090.50134	
2572	25.710	-843.23114	-52.33244	-650.68323	726.80249	-50.97775	-655.99109	-750.98120	48.18588	480.41644	691.15161	49.85337	489.69077	-57.41699	1212.21765	-1091.95581	
2573	25.720	-842.37750	-52.37945	-650.70300	727.38885	-51.16403	-656.03009	-750.63934	48.53114	480.11093	691.79523	49.86756	489.66595	-56.74387	1211.81995	-1093.94324	
2574	25.730	-841.98877	-52.60893	-650.66693	727.88129	-51.32021	-656.07471	-750.20618	48.71616	480.18643	692.30383	49.90609	489.66803	-56.50337	1211.65527	-1094.85449	
2575	25.740	-841.47943	-52.78566	-650.59894	728.30133	-51.30332	-655.85260	-749.62292	48.88404	480.16061	692.69568	50.03236	489.65738	-55.78974	1211.26013	-1096.54407	
2576	25.750	-840.91394	-52.97842	-650.77081	729.01801	-51.32531	-655.73096	-748.87323	49.08052	480.20905	693.33429	50.14495	489.56683	-54.91747	1211.18005	-1097.77380	
2577	25.760	-840.42920	-53.00728	-650.71985	729.87177	-51.36794	-655.94391	-748.34088	49.11994	480.18405	693.88080	49.88839	489.56192	-54.58128	1211.18604	-1098.58752	
2578	25.770	-839.53778	-52.85017	-650.64307	730.47571	-51.36588	-656.07214	-747.65076	49.04268	480.17899	692.97430	48.88301	488.82617	-53.53448	1211.01770	-1099.76331	
2579	25.780	-838.52173	-53.00880	-650.76416	731.24615	-51.43269	-656.02704	-746.83258	48.93001	480.06494	695.29224	49.97972	489.08185	-52.81122	1210.86829	-1100.32959	
2580	25.790	-838.07178	-53.04329	-650.62030	731.94580	-51.52116	-655.83496	-746.15411	48.92490	480.07339	695.91779	50.11507	489.14764	-52.00027	1210.77087	-1101.04553	
2581	25.800	-837.50977	-52.95102	-650.44476	732.56921	-51.47084	-655.88214	-745.59204	49.03761	479.98416	697.52234	50.71825	490.06982	-51.46891	1210.73401	-1101.31042	
2582	25.810	-836.74402	-52.92010	-650.59113	733.30591	-51.35572	-655.93213	-744.71088	49.19814	479.99289	697.85107	50.45682	489.73337	-50.98862	1210.84583	-1101.28076	
2583	25.820	-835.96368	-53.03161	-650.78009	734.11353	-51.51462	-655.90656	-744.03485	49.15882	479.94583	698.40393	50.34123	489.67749	-49.93064	1210.80090	-1101.32849	
2584	25.830	-834.98425	-53.10644	-650.65546	734.70605	-51.57628	-655.98468	-743.21497	49.03077	479.99185	699.46906	50.23301	489.54913	-48.90725	1210.54419	-1101.23340	
2585	25.840	-834.25677	-53.07450	-650.62457	735.44983	-51.67559	-656.07678	-742.50299	48.91770	480.09439	699.94342	50.29459	489.56924	-48.13767	1210.50488	-1100.90076	
2586	25.850	-833.51727	-52.87383	-650.68378	736.25464	-51.79766	-655.94061	-741.66284	48.93895	480.11841	700.88483	50.26097	489.55353	-47.52298	1210.84167	-1100.22180	
2587	25.860	-832.70673	-52.80715	-650.73499	737.55310	-51.17779	-655.78271	-740.73346	49.02147	480.13226	701.89777	50.14066	489.44241	-46.33844	1211.07935	-1099.78064	
2588	25.870	-831.80145	-52.59936	-650.86066	738.58978	-50.99466	-655.67657	-739.94299	48.82934	480.07944	702.61462	50.03659	489.62057	-45.98022	1211.58130	-1098.59937	
2589	25.880	-830.84796	-52.36322	-650.70752	739.40619	-50.92068	-655.67896	-738.97504	48.56305	480.03912	703.35901	49.97709	489.74023	-45.26118	1211.85254	-1097.77759	
2590	25.890	-830.07922	-52.19230	-650.72357	740.00861	-50.78444	-655.80719	-738.25372	48.56931	480.12836	704.27740	49.73870	489.77365	-44.50794	1212.42249	-1096.63672	
2591	25.900	-829.12561	-51.77974	-650.37262	740.83459	-50.34328	-655.73792	-737.40375	48.11069	480.17831	704.77252	49.35712	489.93802	-43.69749	1213.03259	-1095.25537	
2592	25.910	-828.25861	-51.33683	-650.67584	741.72400	-49.63956	-655.59607	-736.50745	48.01371	480.31088	705.74377	49.10339	489.92136	-43.10152	1213.66760	-1093.89612	
2593	25.920	-827.44989	-50.91871	-650.56549	742.75140	-49.21705	-655.61749	-735.53369	47.59895	480.52563	706.96649	48.72429	490.02612	-41.41925	1214.39368	-1092.67993	
2594	25.930	-826.51746	-50.37521	-650.23621	743.41382	-48.67606	-655.63074	-734.67096	47.31182	480.74335	707.60791	48.42794	490.19980	-40.78433	1215.34888	-1091.18079	
2595	25.940	-825.51361	-49.95933	-650.31946	744.53241	-48.01209	-655.33630	-733.68317	46.94622	480.89944	708.50122	47.89970	490.31271	-40.16649	1216.62317	-1089.74768	
2596	25.950	-824.62750	-49.17683	-650.31250	745.40778	-47.63164	-655.28839	-732.70862	46.59534	481.13864	709.42920	47.66594	490.67465	-39.15140	1217.37012	-1088.28442	
2597	25.960	-823.73590	-48.44288	-650.15125	746.41412	-47.03361	-655.41473	-731.89447	46.20701	481.29886	710.45081	47.18697	490.69327	-38.28020	1218.42090	-1086.31702	
2598	25.970	-822.72662	-47.70771	-650.16522	747.29883	-46.13380	-655.12683	-730.84229	45.75529	481.39072	711.58655	46.81693	490.87976	-37.10394	1219.56848	-1084.75195	
